{
	"patcher" : 	{
		"fileversion" : 1,
		"appversion" : 		{
			"major" : 7,
			"minor" : 2,
			"revision" : 4,
			"architecture" : "x86",
			"modernui" : 1
		}
,
		"rect" : [ 390.0, 79.0, 1496.0, 1087.0 ],
		"bglocked" : 0,
		"openinpresentation" : 0,
		"default_fontsize" : 12.0,
		"default_fontface" : 0,
		"default_fontname" : "Arial",
		"gridonopen" : 1,
		"gridsize" : [ 15.0, 15.0 ],
		"gridsnaponopen" : 1,
		"objectsnaponopen" : 1,
		"statusbarvisible" : 2,
		"toolbarvisible" : 1,
		"lefttoolbarpinned" : 0,
		"toptoolbarpinned" : 0,
		"righttoolbarpinned" : 0,
		"bottomtoolbarpinned" : 0,
		"toolbars_unpinned_last_save" : 0,
		"tallnewobj" : 0,
		"boxanimatetime" : 200,
		"enablehscroll" : 1,
		"enablevscroll" : 1,
		"devicewidth" : 0.0,
		"description" : "",
		"digest" : "",
		"tags" : "",
		"style" : "",
		"subpatcher_template" : "",
		"boxes" : [ 			{
				"box" : 				{
					"id" : "obj-44",
					"maxclass" : "newobj",
					"numinlets" : 2,
					"numoutlets" : 1,
					"outlettype" : [ "signal" ],
					"patching_rect" : [ 664.0, 848.0, 42.0, 22.0 ],
					"style" : "",
					"text" : "*~ 0.3"
				}

			}
, 			{
				"box" : 				{
					"id" : "obj-43",
					"maxclass" : "newobj",
					"numinlets" : 1,
					"numoutlets" : 0,
					"patching_rect" : [ 626.0, 902.0, 80.0, 22.0 ],
					"style" : "",
					"text" : "send~ output"
				}

			}
, 			{
				"box" : 				{
					"id" : "obj-88",
					"maxclass" : "newobj",
					"numinlets" : 1,
					"numoutlets" : 1,
					"outlettype" : [ "" ],
					"patching_rect" : [ 218.999985, 804.0, 89.0, 22.0 ],
					"style" : "",
					"text" : "loadmess 0.03"
				}

			}
, 			{
				"box" : 				{
					"id" : "obj-87",
					"maxclass" : "newobj",
					"numinlets" : 1,
					"numoutlets" : 1,
					"outlettype" : [ "" ],
					"patching_rect" : [ 72.0, 800.0, 82.0, 22.0 ],
					"style" : "",
					"text" : "loadmess 2.5"
				}

			}
, 			{
				"box" : 				{
					"id" : "obj-64",
					"maxclass" : "newobj",
					"numinlets" : 2,
					"numoutlets" : 1,
					"outlettype" : [ "signal" ],
					"patching_rect" : [ 1381.0, 343.0, 42.0, 22.0 ],
					"style" : "",
					"text" : "*~ 0.1"
				}

			}
, 			{
				"box" : 				{
					"id" : "obj-60",
					"maxclass" : "newobj",
					"numinlets" : 1,
					"numoutlets" : 0,
					"patching_rect" : [ 466.0, 973.0, 80.0, 22.0 ],
					"style" : "",
					"text" : "send~ output"
				}

			}
, 			{
				"box" : 				{
					"format" : 6,
					"id" : "obj-59",
					"maxclass" : "flonum",
					"minimum" : 0.000001,
					"numinlets" : 1,
					"numoutlets" : 2,
					"outlettype" : [ "", "bang" ],
					"parameter_enable" : 0,
					"patching_rect" : [ 218.999985, 861.0, 109.0, 22.0 ],
					"style" : ""
				}

			}
, 			{
				"box" : 				{
					"format" : 6,
					"id" : "obj-48",
					"maxclass" : "flonum",
					"minimum" : 0.1,
					"numinlets" : 1,
					"numoutlets" : 2,
					"outlettype" : [ "", "bang" ],
					"parameter_enable" : 0,
					"patching_rect" : [ 68.999985, 848.0, 50.0, 22.0 ],
					"style" : ""
				}

			}
, 			{
				"box" : 				{
					"id" : "obj-46",
					"maxclass" : "newobj",
					"numinlets" : 1,
					"numoutlets" : 1,
					"outlettype" : [ "signal" ],
					"patching_rect" : [ 26.499985, 996.666687, 135.0, 22.0 ],
					"style" : "",
					"text" : "boundry #1 -0.99  #3"
				}

			}
, 			{
				"box" : 				{
					"id" : "obj-45",
					"maxclass" : "message",
					"numinlets" : 2,
					"numoutlets" : 1,
					"outlettype" : [ "" ],
					"patching_rect" : [ 68.999985, 887.0, 41.0, 22.0 ],
					"style" : "",
					"text" : "d5 $1"
				}

			}
, 			{
				"box" : 				{
					"id" : "obj-41",
					"maxclass" : "message",
					"numinlets" : 2,
					"numoutlets" : 1,
					"outlettype" : [ "" ],
					"patching_rect" : [ 218.999985, 887.0, 38.0, 22.0 ],
					"style" : "",
					"text" : "r5 $1"
				}

			}
, 			{
				"box" : 				{
					"id" : "obj-37",
					"maxclass" : "newobj",
					"numinlets" : 7,
					"numoutlets" : 7,
					"outlettype" : [ "signal", "signal", "signal", "signal", "signal", "signal", "signal" ],
					"patching_rect" : [ 68.999985, 946.0, 82.0, 22.0 ],
					"style" : "",
					"text" : "sj 0.8"
				}

			}
, 			{
				"box" : 				{
					"id" : "obj-81",
					"maxclass" : "newobj",
					"numinlets" : 1,
					"numoutlets" : 1,
					"outlettype" : [ "signal" ],
					"patching_rect" : [ 1000.0, 746.666687, 134.0, 22.0 ],
					"style" : "",
					"text" : "boundry #1 #2 #3"
				}

			}
, 			{
				"box" : 				{
					"id" : "obj-82",
					"maxclass" : "newobj",
					"numinlets" : 1,
					"numoutlets" : 1,
					"outlettype" : [ "signal" ],
					"patching_rect" : [ 829.666687, 712.0, 134.0, 22.0 ],
					"style" : "",
					"text" : "boundry #1 #2 #3"
				}

			}
, 			{
				"box" : 				{
					"id" : "obj-83",
					"maxclass" : "newobj",
					"numinlets" : 1,
					"numoutlets" : 1,
					"outlettype" : [ "signal" ],
					"patching_rect" : [ 691.333313, 738.0, 134.0, 22.0 ],
					"style" : "",
					"text" : "boundry #1 #2 #3"
				}

			}
, 			{
				"box" : 				{
					"id" : "obj-84",
					"maxclass" : "newobj",
					"numinlets" : 1,
					"numoutlets" : 1,
					"outlettype" : [ "signal" ],
					"patching_rect" : [ 523.0, 738.0, 134.0, 22.0 ],
					"style" : "",
					"text" : "boundry #1 #2 #3"
				}

			}
, 			{
				"box" : 				{
					"id" : "obj-85",
					"maxclass" : "newobj",
					"numinlets" : 1,
					"numoutlets" : 1,
					"outlettype" : [ "signal" ],
					"patching_rect" : [ 374.666656, 746.666687, 134.0, 22.0 ],
					"style" : "",
					"text" : "boundry #1 #2 #3"
				}

			}
, 			{
				"box" : 				{
					"id" : "obj-86",
					"maxclass" : "newobj",
					"numinlets" : 1,
					"numoutlets" : 1,
					"outlettype" : [ "signal" ],
					"patching_rect" : [ 215.999985, 720.666687, 134.0, 22.0 ],
					"style" : "",
					"text" : "boundry #1 #2 #3"
				}

			}
, 			{
				"box" : 				{
					"id" : "obj-71",
					"maxclass" : "newobj",
					"numinlets" : 1,
					"numoutlets" : 1,
					"outlettype" : [ "signal" ],
					"patching_rect" : [ 1125.333374, 201.0, 134.0, 22.0 ],
					"style" : "",
					"text" : "boundry #1 #2 #3"
				}

			}
, 			{
				"box" : 				{
					"id" : "obj-72",
					"maxclass" : "newobj",
					"numinlets" : 1,
					"numoutlets" : 1,
					"outlettype" : [ "signal" ],
					"patching_rect" : [ 1125.333374, 299.0, 134.0, 22.0 ],
					"style" : "",
					"text" : "boundry #1 #2 #3"
				}

			}
, 			{
				"box" : 				{
					"id" : "obj-73",
					"maxclass" : "newobj",
					"numinlets" : 1,
					"numoutlets" : 1,
					"outlettype" : [ "signal" ],
					"patching_rect" : [ 1125.333374, 380.0, 134.0, 22.0 ],
					"style" : "",
					"text" : "boundry #1 #2 #3"
				}

			}
, 			{
				"box" : 				{
					"id" : "obj-74",
					"maxclass" : "newobj",
					"numinlets" : 1,
					"numoutlets" : 1,
					"outlettype" : [ "signal" ],
					"patching_rect" : [ 1125.333374, 458.0, 134.0, 22.0 ],
					"style" : "",
					"text" : "boundry #1 #2 #3"
				}

			}
, 			{
				"box" : 				{
					"id" : "obj-75",
					"maxclass" : "newobj",
					"numinlets" : 1,
					"numoutlets" : 1,
					"outlettype" : [ "signal" ],
					"patching_rect" : [ 1125.333374, 556.0, 134.0, 22.0 ],
					"style" : "",
					"text" : "boundry #1 #2 #3"
				}

			}
, 			{
				"box" : 				{
					"id" : "obj-79",
					"maxclass" : "newobj",
					"numinlets" : 1,
					"numoutlets" : 1,
					"outlettype" : [ "signal" ],
					"patching_rect" : [ 1125.333374, 637.0, 134.0, 22.0 ],
					"style" : "",
					"text" : "boundry #1 #2 #3"
				}

			}
, 			{
				"box" : 				{
					"id" : "obj-70",
					"maxclass" : "newobj",
					"numinlets" : 1,
					"numoutlets" : 1,
					"outlettype" : [ "signal" ],
					"patching_rect" : [ 1000.0, 149.333328, 134.0, 22.0 ],
					"style" : "",
					"text" : "boundry #1 #2 #3"
				}

			}
, 			{
				"box" : 				{
					"id" : "obj-69",
					"maxclass" : "newobj",
					"numinlets" : 1,
					"numoutlets" : 1,
					"outlettype" : [ "signal" ],
					"patching_rect" : [ 844.0, 114.666664, 134.0, 22.0 ],
					"style" : "",
					"text" : "boundry #1 #2 #3"
				}

			}
, 			{
				"box" : 				{
					"id" : "obj-68",
					"maxclass" : "newobj",
					"numinlets" : 1,
					"numoutlets" : 1,
					"outlettype" : [ "signal" ],
					"patching_rect" : [ 661.333313, 144.666656, 134.0, 22.0 ],
					"style" : "",
					"text" : "boundry #1 #2 #3"
				}

			}
, 			{
				"box" : 				{
					"id" : "obj-67",
					"maxclass" : "newobj",
					"numinlets" : 1,
					"numoutlets" : 1,
					"outlettype" : [ "signal" ],
					"patching_rect" : [ 502.0, 114.666664, 134.0, 22.0 ],
					"style" : "",
					"text" : "boundry #1 #2 #3"
				}

			}
, 			{
				"box" : 				{
					"id" : "obj-66",
					"maxclass" : "newobj",
					"numinlets" : 1,
					"numoutlets" : 1,
					"outlettype" : [ "signal" ],
					"patching_rect" : [ 333.666656, 149.333328, 134.0, 22.0 ],
					"style" : "",
					"text" : "boundry #1 #2 #3"
				}

			}
, 			{
				"box" : 				{
					"id" : "obj-65",
					"maxclass" : "newobj",
					"numinlets" : 1,
					"numoutlets" : 1,
					"outlettype" : [ "signal" ],
					"patching_rect" : [ 174.999985, 123.333328, 134.0, 22.0 ],
					"style" : "",
					"text" : "boundry #1 #2 #3"
				}

			}
, 			{
				"box" : 				{
					"id" : "obj-51",
					"maxclass" : "newobj",
					"numinlets" : 1,
					"numoutlets" : 1,
					"outlettype" : [ "signal" ],
					"patching_rect" : [ 68.999985, 178.0, 134.0, 22.0 ],
					"style" : "",
					"text" : "boundry #1 #2 #3"
				}

			}
, 			{
				"box" : 				{
					"id" : "obj-53",
					"maxclass" : "newobj",
					"numinlets" : 1,
					"numoutlets" : 1,
					"outlettype" : [ "signal" ],
					"patching_rect" : [ 68.999985, 276.0, 134.0, 22.0 ],
					"style" : "",
					"text" : "boundry #1 #2 #3"
				}

			}
, 			{
				"box" : 				{
					"id" : "obj-54",
					"maxclass" : "newobj",
					"numinlets" : 1,
					"numoutlets" : 1,
					"outlettype" : [ "signal" ],
					"patching_rect" : [ 68.999985, 357.0, 134.0, 22.0 ],
					"style" : "",
					"text" : "boundry #1 #2 #3"
				}

			}
, 			{
				"box" : 				{
					"id" : "obj-50",
					"maxclass" : "newobj",
					"numinlets" : 1,
					"numoutlets" : 1,
					"outlettype" : [ "signal" ],
					"patching_rect" : [ 68.999985, 435.0, 134.0, 22.0 ],
					"style" : "",
					"text" : "boundry #1 #2 #3"
				}

			}
, 			{
				"box" : 				{
					"id" : "obj-49",
					"maxclass" : "newobj",
					"numinlets" : 1,
					"numoutlets" : 1,
					"outlettype" : [ "signal" ],
					"patching_rect" : [ 68.999985, 533.0, 134.0, 22.0 ],
					"style" : "",
					"text" : "boundry #1 #2 #3"
				}

			}
, 			{
				"box" : 				{
					"id" : "obj-63",
					"maxclass" : "scope~",
					"numinlets" : 2,
					"numoutlets" : 0,
					"patching_rect" : [ 1348.5, 446.0, 130.0, 130.0 ],
					"style" : ""
				}

			}
, 			{
				"box" : 				{
					"id" : "obj-62",
					"maxclass" : "newobj",
					"numinlets" : 1,
					"numoutlets" : 1,
					"outlettype" : [ "signal" ],
					"patching_rect" : [ 1381.0, 301.333313, 93.0, 22.0 ],
					"style" : "",
					"text" : "receive~ output"
				}

			}
, 			{
				"box" : 				{
					"id" : "obj-61",
					"maxclass" : "newobj",
					"numinlets" : 1,
					"numoutlets" : 0,
					"patching_rect" : [ 1377.0, 230.333313, 73.0, 22.0 ],
					"style" : "",
					"text" : "send~ input"
				}

			}
, 			{
				"box" : 				{
					"comment" : "",
					"id" : "obj-12",
					"maxclass" : "outlet",
					"numinlets" : 1,
					"numoutlets" : 0,
					"patching_rect" : [ 1381.0, 407.0, 30.0, 30.0 ],
					"style" : ""
				}

			}
, 			{
				"box" : 				{
					"comment" : "",
					"id" : "obj-10",
					"maxclass" : "inlet",
					"numinlets" : 0,
					"numoutlets" : 1,
					"outlettype" : [ "signal" ],
					"patching_rect" : [ 1377.0, 186.0, 30.0, 30.0 ],
					"style" : ""
				}

			}
, 			{
				"box" : 				{
					"id" : "obj-5",
					"maxclass" : "newobj",
					"numinlets" : 1,
					"numoutlets" : 1,
					"outlettype" : [ "signal" ],
					"patching_rect" : [ 264.0, 928.0, 86.0, 22.0 ],
					"style" : "",
					"text" : "receive~ input"
				}

			}
, 			{
				"box" : 				{
					"id" : "obj-52",
					"maxclass" : "newobj",
					"numinlets" : 1,
					"numoutlets" : 1,
					"outlettype" : [ "signal" ],
					"patching_rect" : [ 68.999985, 614.0, 134.0, 22.0 ],
					"style" : "",
					"text" : "boundry #1 #2 #3"
				}

			}
, 			{
				"box" : 				{
					"id" : "obj-25",
					"maxclass" : "newobj",
					"numinlets" : 7,
					"numoutlets" : 7,
					"outlettype" : [ "signal", "signal", "signal", "signal", "signal", "signal", "signal" ],
					"patching_rect" : [ 825.0, 657.333374, 82.0, 22.0 ],
					"style" : "",
					"text" : "sj #1"
				}

			}
, 			{
				"box" : 				{
					"id" : "obj-26",
					"maxclass" : "newobj",
					"numinlets" : 7,
					"numoutlets" : 7,
					"outlettype" : [ "signal", "signal", "signal", "signal", "signal", "signal", "signal" ],
					"patching_rect" : [ 825.0, 571.333313, 82.0, 22.0 ],
					"style" : "",
					"text" : "sj #1"
				}

			}
, 			{
				"box" : 				{
					"id" : "obj-27",
					"maxclass" : "newobj",
					"numinlets" : 7,
					"numoutlets" : 7,
					"outlettype" : [ "signal", "signal", "signal", "signal", "signal", "signal", "signal" ],
					"patching_rect" : [ 993.0, 657.333374, 82.0, 22.0 ],
					"style" : "",
					"text" : "sj #1"
				}

			}
, 			{
				"box" : 				{
					"id" : "obj-28",
					"maxclass" : "newobj",
					"numinlets" : 7,
					"numoutlets" : 7,
					"outlettype" : [ "signal", "signal", "signal", "signal", "signal", "signal", "signal" ],
					"patching_rect" : [ 987.0, 571.333313, 82.0, 22.0 ],
					"style" : "",
					"text" : "sj #1"
				}

			}
, 			{
				"box" : 				{
					"id" : "obj-29",
					"maxclass" : "newobj",
					"numinlets" : 7,
					"numoutlets" : 7,
					"outlettype" : [ "signal", "signal", "signal", "signal", "signal", "signal", "signal" ],
					"patching_rect" : [ 658.0, 571.333313, 82.0, 22.0 ],
					"style" : "",
					"text" : "sj #1"
				}

			}
, 			{
				"box" : 				{
					"id" : "obj-30",
					"maxclass" : "newobj",
					"numinlets" : 7,
					"numoutlets" : 7,
					"outlettype" : [ "signal", "signal", "signal", "signal", "signal", "signal", "signal" ],
					"patching_rect" : [ 677.0, 657.333374, 82.0, 22.0 ],
					"style" : "",
					"text" : "sj #1"
				}

			}
, 			{
				"box" : 				{
					"id" : "obj-31",
					"maxclass" : "newobj",
					"numinlets" : 7,
					"numoutlets" : 7,
					"outlettype" : [ "signal", "signal", "signal", "signal", "signal", "signal", "signal" ],
					"patching_rect" : [ 215.999985, 657.333374, 82.0, 22.0 ],
					"style" : "",
					"text" : "sj #1"
				}

			}
, 			{
				"box" : 				{
					"id" : "obj-32",
					"maxclass" : "newobj",
					"numinlets" : 7,
					"numoutlets" : 7,
					"outlettype" : [ "signal", "signal", "signal", "signal", "signal", "signal", "signal" ],
					"patching_rect" : [ 215.999985, 571.333313, 82.0, 22.0 ],
					"style" : "",
					"text" : "sj #1"
				}

			}
, 			{
				"box" : 				{
					"id" : "obj-33",
					"maxclass" : "newobj",
					"numinlets" : 7,
					"numoutlets" : 7,
					"outlettype" : [ "signal", "signal", "signal", "signal", "signal", "signal", "signal" ],
					"patching_rect" : [ 348.0, 657.333374, 82.0, 22.0 ],
					"style" : "",
					"text" : "sj #1"
				}

			}
, 			{
				"box" : 				{
					"id" : "obj-34",
					"maxclass" : "newobj",
					"numinlets" : 7,
					"numoutlets" : 7,
					"outlettype" : [ "signal", "signal", "signal", "signal", "signal", "signal", "signal" ],
					"patching_rect" : [ 502.0, 657.333374, 82.0, 22.0 ],
					"style" : "",
					"text" : "sj #1"
				}

			}
, 			{
				"box" : 				{
					"id" : "obj-35",
					"maxclass" : "newobj",
					"numinlets" : 7,
					"numoutlets" : 7,
					"outlettype" : [ "signal", "signal", "signal", "signal", "signal", "signal", "signal" ],
					"patching_rect" : [ 342.0, 571.333313, 82.0, 22.0 ],
					"style" : "",
					"text" : "sj #1"
				}

			}
, 			{
				"box" : 				{
					"id" : "obj-36",
					"maxclass" : "newobj",
					"numinlets" : 7,
					"numoutlets" : 7,
					"outlettype" : [ "signal", "signal", "signal", "signal", "signal", "signal", "signal" ],
					"patching_rect" : [ 502.0, 571.333313, 82.0, 22.0 ],
					"style" : "",
					"text" : "sj #1"
				}

			}
, 			{
				"box" : 				{
					"id" : "obj-7",
					"maxclass" : "newobj",
					"numinlets" : 7,
					"numoutlets" : 7,
					"outlettype" : [ "signal", "signal", "signal", "signal", "signal", "signal", "signal" ],
					"patching_rect" : [ 825.0, 477.333344, 82.0, 22.0 ],
					"style" : "",
					"text" : "sj #1"
				}

			}
, 			{
				"box" : 				{
					"id" : "obj-8",
					"maxclass" : "newobj",
					"numinlets" : 7,
					"numoutlets" : 7,
					"outlettype" : [ "signal", "signal", "signal", "signal", "signal", "signal", "signal" ],
					"patching_rect" : [ 825.0, 391.333313, 82.0, 22.0 ],
					"style" : "",
					"text" : "sj #1"
				}

			}
, 			{
				"box" : 				{
					"id" : "obj-9",
					"maxclass" : "newobj",
					"numinlets" : 7,
					"numoutlets" : 7,
					"outlettype" : [ "signal", "signal", "signal", "signal", "signal", "signal", "signal" ],
					"patching_rect" : [ 993.0, 477.333344, 82.0, 22.0 ],
					"style" : "",
					"text" : "sj #1"
				}

			}
, 			{
				"box" : 				{
					"id" : "obj-11",
					"maxclass" : "newobj",
					"numinlets" : 7,
					"numoutlets" : 7,
					"outlettype" : [ "signal", "signal", "signal", "signal", "signal", "signal", "signal" ],
					"patching_rect" : [ 987.0, 391.333313, 82.0, 22.0 ],
					"style" : "",
					"text" : "sj #1"
				}

			}
, 			{
				"box" : 				{
					"id" : "obj-13",
					"maxclass" : "newobj",
					"numinlets" : 7,
					"numoutlets" : 7,
					"outlettype" : [ "signal", "signal", "signal", "signal", "signal", "signal", "signal" ],
					"patching_rect" : [ 658.0, 391.333313, 82.0, 22.0 ],
					"style" : "",
					"text" : "sj #1"
				}

			}
, 			{
				"box" : 				{
					"id" : "obj-14",
					"maxclass" : "newobj",
					"numinlets" : 7,
					"numoutlets" : 7,
					"outlettype" : [ "signal", "signal", "signal", "signal", "signal", "signal", "signal" ],
					"patching_rect" : [ 658.0, 477.333344, 82.0, 22.0 ],
					"style" : "",
					"text" : "sj #1"
				}

			}
, 			{
				"box" : 				{
					"id" : "obj-15",
					"maxclass" : "newobj",
					"numinlets" : 7,
					"numoutlets" : 7,
					"outlettype" : [ "signal", "signal", "signal", "signal", "signal", "signal", "signal" ],
					"patching_rect" : [ 215.999985, 477.333344, 82.0, 22.0 ],
					"style" : "",
					"text" : "sj #1"
				}

			}
, 			{
				"box" : 				{
					"id" : "obj-16",
					"maxclass" : "newobj",
					"numinlets" : 7,
					"numoutlets" : 7,
					"outlettype" : [ "signal", "signal", "signal", "signal", "signal", "signal", "signal" ],
					"patching_rect" : [ 215.999985, 391.333313, 82.0, 22.0 ],
					"style" : "",
					"text" : "sj #1"
				}

			}
, 			{
				"box" : 				{
					"id" : "obj-17",
					"maxclass" : "newobj",
					"numinlets" : 7,
					"numoutlets" : 7,
					"outlettype" : [ "signal", "signal", "signal", "signal", "signal", "signal", "signal" ],
					"patching_rect" : [ 348.0, 477.333344, 82.0, 22.0 ],
					"style" : "",
					"text" : "sj #1"
				}

			}
, 			{
				"box" : 				{
					"id" : "obj-19",
					"maxclass" : "newobj",
					"numinlets" : 7,
					"numoutlets" : 7,
					"outlettype" : [ "signal", "signal", "signal", "signal", "signal", "signal", "signal" ],
					"patching_rect" : [ 502.0, 477.333344, 82.0, 22.0 ],
					"style" : "",
					"text" : "sj #1"
				}

			}
, 			{
				"box" : 				{
					"id" : "obj-21",
					"maxclass" : "newobj",
					"numinlets" : 7,
					"numoutlets" : 7,
					"outlettype" : [ "signal", "signal", "signal", "signal", "signal", "signal", "signal" ],
					"patching_rect" : [ 342.0, 391.333313, 82.0, 22.0 ],
					"style" : "",
					"text" : "sj #1"
				}

			}
, 			{
				"box" : 				{
					"id" : "obj-22",
					"maxclass" : "newobj",
					"numinlets" : 7,
					"numoutlets" : 7,
					"outlettype" : [ "signal", "signal", "signal", "signal", "signal", "signal", "signal" ],
					"patching_rect" : [ 502.0, 391.333313, 82.0, 22.0 ],
					"style" : "",
					"text" : "sj #1"
				}

			}
, 			{
				"box" : 				{
					"id" : "obj-76",
					"maxclass" : "newobj",
					"numinlets" : 7,
					"numoutlets" : 7,
					"outlettype" : [ "signal", "signal", "signal", "signal", "signal", "signal", "signal" ],
					"patching_rect" : [ 825.0, 316.333344, 82.0, 22.0 ],
					"style" : "",
					"text" : "sj #1"
				}

			}
, 			{
				"box" : 				{
					"id" : "obj-77",
					"maxclass" : "newobj",
					"numinlets" : 7,
					"numoutlets" : 7,
					"outlettype" : [ "signal", "signal", "signal", "signal", "signal", "signal", "signal" ],
					"patching_rect" : [ 825.0, 230.333313, 82.0, 22.0 ],
					"style" : "",
					"text" : "sj #1"
				}

			}
, 			{
				"box" : 				{
					"id" : "obj-78",
					"maxclass" : "newobj",
					"numinlets" : 7,
					"numoutlets" : 7,
					"outlettype" : [ "signal", "signal", "signal", "signal", "signal", "signal", "signal" ],
					"patching_rect" : [ 993.0, 316.333344, 82.0, 22.0 ],
					"style" : "",
					"text" : "sj #1"
				}

			}
, 			{
				"box" : 				{
					"id" : "obj-80",
					"maxclass" : "newobj",
					"numinlets" : 7,
					"numoutlets" : 7,
					"outlettype" : [ "signal", "signal", "signal", "signal", "signal", "signal", "signal" ],
					"patching_rect" : [ 987.0, 230.333313, 82.0, 22.0 ],
					"style" : "",
					"text" : "sj #1"
				}

			}
, 			{
				"box" : 				{
					"id" : "obj-24",
					"maxclass" : "newobj",
					"numinlets" : 7,
					"numoutlets" : 7,
					"outlettype" : [ "signal", "signal", "signal", "signal", "signal", "signal", "signal" ],
					"patching_rect" : [ 658.0, 230.333313, 82.0, 22.0 ],
					"style" : "",
					"text" : "sj #1"
				}

			}
, 			{
				"box" : 				{
					"id" : "obj-23",
					"maxclass" : "newobj",
					"numinlets" : 7,
					"numoutlets" : 7,
					"outlettype" : [ "signal", "signal", "signal", "signal", "signal", "signal", "signal" ],
					"patching_rect" : [ 677.0, 316.333344, 82.0, 22.0 ],
					"style" : "",
					"text" : "sj #1"
				}

			}
, 			{
				"box" : 				{
					"id" : "obj-20",
					"maxclass" : "newobj",
					"numinlets" : 7,
					"numoutlets" : 7,
					"outlettype" : [ "signal", "signal", "signal", "signal", "signal", "signal", "signal" ],
					"patching_rect" : [ 215.999985, 316.333344, 82.0, 22.0 ],
					"style" : "",
					"text" : "sj #1"
				}

			}
, 			{
				"box" : 				{
					"id" : "obj-18",
					"maxclass" : "newobj",
					"numinlets" : 7,
					"numoutlets" : 7,
					"outlettype" : [ "signal", "signal", "signal", "signal", "signal", "signal", "signal" ],
					"patching_rect" : [ 215.999985, 230.333313, 82.0, 22.0 ],
					"style" : "",
					"text" : "sj #1"
				}

			}
, 			{
				"box" : 				{
					"id" : "obj-4",
					"maxclass" : "newobj",
					"numinlets" : 7,
					"numoutlets" : 7,
					"outlettype" : [ "signal", "signal", "signal", "signal", "signal", "signal", "signal" ],
					"patching_rect" : [ 348.0, 316.333344, 82.0, 22.0 ],
					"style" : "",
					"text" : "sj #1"
				}

			}
, 			{
				"box" : 				{
					"id" : "obj-3",
					"maxclass" : "newobj",
					"numinlets" : 7,
					"numoutlets" : 7,
					"outlettype" : [ "signal", "signal", "signal", "signal", "signal", "signal", "signal" ],
					"patching_rect" : [ 502.0, 316.333344, 82.0, 22.0 ],
					"style" : "",
					"text" : "sj #1"
				}

			}
, 			{
				"box" : 				{
					"id" : "obj-2",
					"maxclass" : "newobj",
					"numinlets" : 7,
					"numoutlets" : 7,
					"outlettype" : [ "signal", "signal", "signal", "signal", "signal", "signal", "signal" ],
					"patching_rect" : [ 342.0, 230.333313, 82.0, 22.0 ],
					"style" : "",
					"text" : "sj #1"
				}

			}
, 			{
				"box" : 				{
					"id" : "obj-1",
					"maxclass" : "newobj",
					"numinlets" : 7,
					"numoutlets" : 7,
					"outlettype" : [ "signal", "signal", "signal", "signal", "signal", "signal", "signal" ],
					"patching_rect" : [ 502.0, 230.333313, 82.0, 22.0 ],
					"style" : "",
					"text" : "sj #1"
				}

			}
 ],
		"lines" : [ 			{
				"patchline" : 				{
					"destination" : [ "obj-2", 1 ],
					"disabled" : 0,
					"hidden" : 0,
					"source" : [ "obj-1", 3 ]
				}

			}
, 			{
				"patchline" : 				{
					"destination" : [ "obj-24", 3 ],
					"disabled" : 0,
					"hidden" : 0,
					"source" : [ "obj-1", 1 ]
				}

			}
, 			{
				"patchline" : 				{
					"destination" : [ "obj-3", 0 ],
					"disabled" : 0,
					"hidden" : 0,
					"source" : [ "obj-1", 2 ]
				}

			}
, 			{
				"patchline" : 				{
					"destination" : [ "obj-67", 0 ],
					"disabled" : 0,
					"hidden" : 0,
					"source" : [ "obj-1", 0 ]
				}

			}
, 			{
				"patchline" : 				{
					"destination" : [ "obj-61", 0 ],
					"disabled" : 0,
					"hidden" : 0,
					"source" : [ "obj-10", 0 ]
				}

			}
, 			{
				"patchline" : 				{
					"destination" : [ "obj-63", 0 ],
					"disabled" : 0,
					"hidden" : 0,
					"source" : [ "obj-10", 0 ]
				}

			}
, 			{
				"patchline" : 				{
					"destination" : [ "obj-73", 0 ],
					"disabled" : 0,
					"hidden" : 0,
					"source" : [ "obj-11", 1 ]
				}

			}
, 			{
				"patchline" : 				{
					"destination" : [ "obj-78", 2 ],
					"disabled" : 0,
					"hidden" : 0,
					"source" : [ "obj-11", 0 ]
				}

			}
, 			{
				"patchline" : 				{
					"destination" : [ "obj-8", 1 ],
					"disabled" : 0,
					"hidden" : 0,
					"source" : [ "obj-11", 3 ]
				}

			}
, 			{
				"patchline" : 				{
					"destination" : [ "obj-9", 0 ],
					"disabled" : 0,
					"hidden" : 0,
					"source" : [ "obj-11", 2 ]
				}

			}
, 			{
				"patchline" : 				{
					"destination" : [ "obj-14", 0 ],
					"disabled" : 0,
					"hidden" : 0,
					"source" : [ "obj-13", 2 ]
				}

			}
, 			{
				"patchline" : 				{
					"destination" : [ "obj-22", 1 ],
					"disabled" : 0,
					"hidden" : 0,
					"source" : [ "obj-13", 3 ]
				}

			}
, 			{
				"patchline" : 				{
					"destination" : [ "obj-23", 2 ],
					"disabled" : 0,
					"hidden" : 0,
					"source" : [ "obj-13", 0 ]
				}

			}
, 			{
				"patchline" : 				{
					"destination" : [ "obj-44", 0 ],
					"disabled" : 0,
					"hidden" : 0,
					"source" : [ "obj-13", 6 ]
				}

			}
, 			{
				"patchline" : 				{
					"destination" : [ "obj-8", 3 ],
					"disabled" : 0,
					"hidden" : 0,
					"source" : [ "obj-13", 1 ]
				}

			}
, 			{
				"patchline" : 				{
					"destination" : [ "obj-13", 2 ],
					"disabled" : 0,
					"hidden" : 0,
					"source" : [ "obj-14", 0 ]
				}

			}
, 			{
				"patchline" : 				{
					"destination" : [ "obj-19", 1 ],
					"disabled" : 0,
					"hidden" : 0,
					"source" : [ "obj-14", 3 ]
				}

			}
, 			{
				"patchline" : 				{
					"destination" : [ "obj-29", 0 ],
					"disabled" : 0,
					"hidden" : 0,
					"source" : [ "obj-14", 2 ]
				}

			}
, 			{
				"patchline" : 				{
					"destination" : [ "obj-44", 0 ],
					"disabled" : 0,
					"hidden" : 0,
					"source" : [ "obj-14", 6 ]
				}

			}
, 			{
				"patchline" : 				{
					"destination" : [ "obj-7", 3 ],
					"disabled" : 0,
					"hidden" : 0,
					"source" : [ "obj-14", 1 ]
				}

			}
, 			{
				"patchline" : 				{
					"destination" : [ "obj-16", 2 ],
					"disabled" : 0,
					"hidden" : 0,
					"source" : [ "obj-15", 0 ]
				}

			}
, 			{
				"patchline" : 				{
					"destination" : [ "obj-17", 3 ],
					"disabled" : 0,
					"hidden" : 0,
					"source" : [ "obj-15", 1 ]
				}

			}
, 			{
				"patchline" : 				{
					"destination" : [ "obj-32", 0 ],
					"disabled" : 0,
					"hidden" : 0,
					"source" : [ "obj-15", 2 ]
				}

			}
, 			{
				"patchline" : 				{
					"destination" : [ "obj-50", 0 ],
					"disabled" : 0,
					"hidden" : 0,
					"source" : [ "obj-15", 3 ]
				}

			}
, 			{
				"patchline" : 				{
					"destination" : [ "obj-15", 0 ],
					"disabled" : 0,
					"hidden" : 0,
					"source" : [ "obj-16", 2 ]
				}

			}
, 			{
				"patchline" : 				{
					"destination" : [ "obj-20", 2 ],
					"disabled" : 0,
					"hidden" : 0,
					"source" : [ "obj-16", 0 ]
				}

			}
, 			{
				"patchline" : 				{
					"destination" : [ "obj-21", 3 ],
					"disabled" : 0,
					"hidden" : 0,
					"source" : [ "obj-16", 1 ]
				}

			}
, 			{
				"patchline" : 				{
					"destination" : [ "obj-54", 0 ],
					"disabled" : 0,
					"hidden" : 0,
					"source" : [ "obj-16", 3 ]
				}

			}
, 			{
				"patchline" : 				{
					"destination" : [ "obj-15", 1 ],
					"disabled" : 0,
					"hidden" : 0,
					"source" : [ "obj-17", 3 ]
				}

			}
, 			{
				"patchline" : 				{
					"destination" : [ "obj-19", 3 ],
					"disabled" : 0,
					"hidden" : 0,
					"source" : [ "obj-17", 1 ]
				}

			}
, 			{
				"patchline" : 				{
					"destination" : [ "obj-21", 2 ],
					"disabled" : 0,
					"hidden" : 0,
					"source" : [ "obj-17", 0 ]
				}

			}
, 			{
				"patchline" : 				{
					"destination" : [ "obj-35", 0 ],
					"disabled" : 0,
					"hidden" : 0,
					"source" : [ "obj-17", 2 ]
				}

			}
, 			{
				"patchline" : 				{
					"destination" : [ "obj-2", 3 ],
					"disabled" : 0,
					"hidden" : 0,
					"source" : [ "obj-18", 1 ]
				}

			}
, 			{
				"patchline" : 				{
					"destination" : [ "obj-20", 0 ],
					"disabled" : 0,
					"hidden" : 0,
					"source" : [ "obj-18", 2 ]
				}

			}
, 			{
				"patchline" : 				{
					"destination" : [ "obj-51", 0 ],
					"disabled" : 0,
					"hidden" : 0,
					"source" : [ "obj-18", 3 ]
				}

			}
, 			{
				"patchline" : 				{
					"destination" : [ "obj-65", 0 ],
					"disabled" : 0,
					"hidden" : 0,
					"source" : [ "obj-18", 0 ]
				}

			}
, 			{
				"patchline" : 				{
					"destination" : [ "obj-14", 3 ],
					"disabled" : 0,
					"hidden" : 0,
					"source" : [ "obj-19", 1 ]
				}

			}
, 			{
				"patchline" : 				{
					"destination" : [ "obj-17", 1 ],
					"disabled" : 0,
					"hidden" : 0,
					"source" : [ "obj-19", 3 ]
				}

			}
, 			{
				"patchline" : 				{
					"destination" : [ "obj-22", 2 ],
					"disabled" : 0,
					"hidden" : 0,
					"source" : [ "obj-19", 0 ]
				}

			}
, 			{
				"patchline" : 				{
					"destination" : [ "obj-36", 0 ],
					"disabled" : 0,
					"hidden" : 0,
					"source" : [ "obj-19", 2 ]
				}

			}
, 			{
				"patchline" : 				{
					"destination" : [ "obj-37", 4 ],
					"disabled" : 0,
					"hidden" : 0,
					"source" : [ "obj-19", 4 ]
				}

			}
, 			{
				"patchline" : 				{
					"destination" : [ "obj-60", 0 ],
					"disabled" : 0,
					"hidden" : 0,
					"source" : [ "obj-19", 6 ]
				}

			}
, 			{
				"patchline" : 				{
					"destination" : [ "obj-1", 3 ],
					"disabled" : 0,
					"hidden" : 0,
					"source" : [ "obj-2", 1 ]
				}

			}
, 			{
				"patchline" : 				{
					"destination" : [ "obj-18", 1 ],
					"disabled" : 0,
					"hidden" : 0,
					"source" : [ "obj-2", 3 ]
				}

			}
, 			{
				"patchline" : 				{
					"destination" : [ "obj-4", 0 ],
					"disabled" : 0,
					"hidden" : 0,
					"source" : [ "obj-2", 2 ]
				}

			}
, 			{
				"patchline" : 				{
					"destination" : [ "obj-66", 0 ],
					"disabled" : 0,
					"hidden" : 0,
					"source" : [ "obj-2", 0 ]
				}

			}
, 			{
				"patchline" : 				{
					"destination" : [ "obj-16", 0 ],
					"disabled" : 0,
					"hidden" : 0,
					"source" : [ "obj-20", 2 ]
				}

			}
, 			{
				"patchline" : 				{
					"destination" : [ "obj-18", 2 ],
					"disabled" : 0,
					"hidden" : 0,
					"source" : [ "obj-20", 0 ]
				}

			}
, 			{
				"patchline" : 				{
					"destination" : [ "obj-4", 3 ],
					"disabled" : 0,
					"hidden" : 0,
					"source" : [ "obj-20", 1 ]
				}

			}
, 			{
				"patchline" : 				{
					"destination" : [ "obj-53", 0 ],
					"disabled" : 0,
					"hidden" : 0,
					"source" : [ "obj-20", 3 ]
				}

			}
, 			{
				"patchline" : 				{
					"destination" : [ "obj-16", 1 ],
					"disabled" : 0,
					"hidden" : 0,
					"source" : [ "obj-21", 3 ]
				}

			}
, 			{
				"patchline" : 				{
					"destination" : [ "obj-17", 0 ],
					"disabled" : 0,
					"hidden" : 0,
					"source" : [ "obj-21", 2 ]
				}

			}
, 			{
				"patchline" : 				{
					"destination" : [ "obj-22", 3 ],
					"disabled" : 0,
					"hidden" : 0,
					"source" : [ "obj-21", 1 ]
				}

			}
, 			{
				"patchline" : 				{
					"destination" : [ "obj-4", 2 ],
					"disabled" : 0,
					"hidden" : 0,
					"source" : [ "obj-21", 0 ]
				}

			}
, 			{
				"patchline" : 				{
					"destination" : [ "obj-13", 3 ],
					"disabled" : 0,
					"hidden" : 0,
					"source" : [ "obj-22", 1 ]
				}

			}
, 			{
				"patchline" : 				{
					"destination" : [ "obj-19", 0 ],
					"disabled" : 0,
					"hidden" : 0,
					"source" : [ "obj-22", 2 ]
				}

			}
, 			{
				"patchline" : 				{
					"destination" : [ "obj-21", 1 ],
					"disabled" : 0,
					"hidden" : 0,
					"source" : [ "obj-22", 3 ]
				}

			}
, 			{
				"patchline" : 				{
					"destination" : [ "obj-3", 2 ],
					"disabled" : 0,
					"hidden" : 0,
					"source" : [ "obj-22", 0 ]
				}

			}
, 			{
				"patchline" : 				{
					"destination" : [ "obj-13", 0 ],
					"disabled" : 0,
					"hidden" : 0,
					"source" : [ "obj-23", 2 ]
				}

			}
, 			{
				"patchline" : 				{
					"destination" : [ "obj-24", 2 ],
					"disabled" : 0,
					"hidden" : 0,
					"source" : [ "obj-23", 0 ]
				}

			}
, 			{
				"patchline" : 				{
					"destination" : [ "obj-3", 1 ],
					"disabled" : 0,
					"hidden" : 0,
					"source" : [ "obj-23", 3 ]
				}

			}
, 			{
				"patchline" : 				{
					"destination" : [ "obj-76", 3 ],
					"disabled" : 0,
					"hidden" : 0,
					"source" : [ "obj-23", 1 ]
				}

			}
, 			{
				"patchline" : 				{
					"destination" : [ "obj-1", 1 ],
					"disabled" : 0,
					"hidden" : 0,
					"source" : [ "obj-24", 3 ]
				}

			}
, 			{
				"patchline" : 				{
					"destination" : [ "obj-23", 0 ],
					"disabled" : 0,
					"hidden" : 0,
					"source" : [ "obj-24", 2 ]
				}

			}
, 			{
				"patchline" : 				{
					"destination" : [ "obj-68", 0 ],
					"disabled" : 0,
					"hidden" : 0,
					"source" : [ "obj-24", 0 ]
				}

			}
, 			{
				"patchline" : 				{
					"destination" : [ "obj-77", 3 ],
					"disabled" : 0,
					"hidden" : 0,
					"source" : [ "obj-24", 1 ]
				}

			}
, 			{
				"patchline" : 				{
					"destination" : [ "obj-26", 2 ],
					"disabled" : 0,
					"hidden" : 0,
					"source" : [ "obj-25", 0 ]
				}

			}
, 			{
				"patchline" : 				{
					"destination" : [ "obj-27", 3 ],
					"disabled" : 0,
					"hidden" : 0,
					"source" : [ "obj-25", 1 ]
				}

			}
, 			{
				"patchline" : 				{
					"destination" : [ "obj-30", 1 ],
					"disabled" : 0,
					"hidden" : 0,
					"source" : [ "obj-25", 3 ]
				}

			}
, 			{
				"patchline" : 				{
					"destination" : [ "obj-82", 0 ],
					"disabled" : 0,
					"hidden" : 0,
					"source" : [ "obj-25", 2 ]
				}

			}
, 			{
				"patchline" : 				{
					"destination" : [ "obj-25", 0 ],
					"disabled" : 0,
					"hidden" : 0,
					"source" : [ "obj-26", 2 ]
				}

			}
, 			{
				"patchline" : 				{
					"destination" : [ "obj-28", 3 ],
					"disabled" : 0,
					"hidden" : 0,
					"source" : [ "obj-26", 1 ]
				}

			}
, 			{
				"patchline" : 				{
					"destination" : [ "obj-29", 1 ],
					"disabled" : 0,
					"hidden" : 0,
					"source" : [ "obj-26", 3 ]
				}

			}
, 			{
				"patchline" : 				{
					"destination" : [ "obj-7", 2 ],
					"disabled" : 0,
					"hidden" : 0,
					"source" : [ "obj-26", 0 ]
				}

			}
, 			{
				"patchline" : 				{
					"destination" : [ "obj-25", 1 ],
					"disabled" : 0,
					"hidden" : 0,
					"source" : [ "obj-27", 3 ]
				}

			}
, 			{
				"patchline" : 				{
					"destination" : [ "obj-28", 2 ],
					"disabled" : 0,
					"hidden" : 0,
					"source" : [ "obj-27", 0 ]
				}

			}
, 			{
				"patchline" : 				{
					"destination" : [ "obj-79", 0 ],
					"disabled" : 0,
					"hidden" : 0,
					"source" : [ "obj-27", 1 ]
				}

			}
, 			{
				"patchline" : 				{
					"destination" : [ "obj-81", 0 ],
					"disabled" : 0,
					"hidden" : 0,
					"source" : [ "obj-27", 2 ]
				}

			}
, 			{
				"patchline" : 				{
					"destination" : [ "obj-26", 1 ],
					"disabled" : 0,
					"hidden" : 0,
					"source" : [ "obj-28", 3 ]
				}

			}
, 			{
				"patchline" : 				{
					"destination" : [ "obj-27", 0 ],
					"disabled" : 0,
					"hidden" : 0,
					"source" : [ "obj-28", 2 ]
				}

			}
, 			{
				"patchline" : 				{
					"destination" : [ "obj-75", 0 ],
					"disabled" : 0,
					"hidden" : 0,
					"source" : [ "obj-28", 1 ]
				}

			}
, 			{
				"patchline" : 				{
					"destination" : [ "obj-9", 2 ],
					"disabled" : 0,
					"hidden" : 0,
					"source" : [ "obj-28", 0 ]
				}

			}
, 			{
				"patchline" : 				{
					"destination" : [ "obj-14", 2 ],
					"disabled" : 0,
					"hidden" : 0,
					"source" : [ "obj-29", 0 ]
				}

			}
, 			{
				"patchline" : 				{
					"destination" : [ "obj-26", 3 ],
					"disabled" : 0,
					"hidden" : 0,
					"source" : [ "obj-29", 1 ]
				}

			}
, 			{
				"patchline" : 				{
					"destination" : [ "obj-30", 0 ],
					"disabled" : 0,
					"hidden" : 0,
					"source" : [ "obj-29", 2 ]
				}

			}
, 			{
				"patchline" : 				{
					"destination" : [ "obj-36", 1 ],
					"disabled" : 0,
					"hidden" : 0,
					"source" : [ "obj-29", 3 ]
				}

			}
, 			{
				"patchline" : 				{
					"destination" : [ "obj-1", 2 ],
					"disabled" : 0,
					"hidden" : 0,
					"source" : [ "obj-3", 0 ]
				}

			}
, 			{
				"patchline" : 				{
					"destination" : [ "obj-22", 0 ],
					"disabled" : 0,
					"hidden" : 0,
					"source" : [ "obj-3", 2 ]
				}

			}
, 			{
				"patchline" : 				{
					"destination" : [ "obj-23", 3 ],
					"disabled" : 0,
					"hidden" : 0,
					"source" : [ "obj-3", 1 ]
				}

			}
, 			{
				"patchline" : 				{
					"destination" : [ "obj-4", 1 ],
					"disabled" : 0,
					"hidden" : 0,
					"source" : [ "obj-3", 3 ]
				}

			}
, 			{
				"patchline" : 				{
					"destination" : [ "obj-25", 3 ],
					"disabled" : 0,
					"hidden" : 0,
					"source" : [ "obj-30", 1 ]
				}

			}
, 			{
				"patchline" : 				{
					"destination" : [ "obj-29", 2 ],
					"disabled" : 0,
					"hidden" : 0,
					"source" : [ "obj-30", 0 ]
				}

			}
, 			{
				"patchline" : 				{
					"destination" : [ "obj-34", 1 ],
					"disabled" : 0,
					"hidden" : 0,
					"source" : [ "obj-30", 3 ]
				}

			}
, 			{
				"patchline" : 				{
					"destination" : [ "obj-83", 0 ],
					"disabled" : 0,
					"hidden" : 0,
					"source" : [ "obj-30", 2 ]
				}

			}
, 			{
				"patchline" : 				{
					"destination" : [ "obj-32", 2 ],
					"disabled" : 0,
					"hidden" : 0,
					"source" : [ "obj-31", 0 ]
				}

			}
, 			{
				"patchline" : 				{
					"destination" : [ "obj-33", 3 ],
					"disabled" : 0,
					"hidden" : 0,
					"source" : [ "obj-31", 1 ]
				}

			}
, 			{
				"patchline" : 				{
					"destination" : [ "obj-52", 0 ],
					"disabled" : 0,
					"hidden" : 0,
					"source" : [ "obj-31", 3 ]
				}

			}
, 			{
				"patchline" : 				{
					"destination" : [ "obj-86", 0 ],
					"disabled" : 0,
					"hidden" : 0,
					"source" : [ "obj-31", 2 ]
				}

			}
, 			{
				"patchline" : 				{
					"destination" : [ "obj-15", 2 ],
					"disabled" : 0,
					"hidden" : 0,
					"source" : [ "obj-32", 0 ]
				}

			}
, 			{
				"patchline" : 				{
					"destination" : [ "obj-31", 0 ],
					"disabled" : 0,
					"hidden" : 0,
					"source" : [ "obj-32", 2 ]
				}

			}
, 			{
				"patchline" : 				{
					"destination" : [ "obj-35", 3 ],
					"disabled" : 0,
					"hidden" : 0,
					"source" : [ "obj-32", 1 ]
				}

			}
, 			{
				"patchline" : 				{
					"destination" : [ "obj-49", 0 ],
					"disabled" : 0,
					"hidden" : 0,
					"source" : [ "obj-32", 3 ]
				}

			}
, 			{
				"patchline" : 				{
					"destination" : [ "obj-31", 1 ],
					"disabled" : 0,
					"hidden" : 0,
					"source" : [ "obj-33", 3 ]
				}

			}
, 			{
				"patchline" : 				{
					"destination" : [ "obj-34", 3 ],
					"disabled" : 0,
					"hidden" : 0,
					"source" : [ "obj-33", 1 ]
				}

			}
, 			{
				"patchline" : 				{
					"destination" : [ "obj-35", 2 ],
					"disabled" : 0,
					"hidden" : 0,
					"source" : [ "obj-33", 0 ]
				}

			}
, 			{
				"patchline" : 				{
					"destination" : [ "obj-85", 0 ],
					"disabled" : 0,
					"hidden" : 0,
					"source" : [ "obj-33", 2 ]
				}

			}
, 			{
				"patchline" : 				{
					"destination" : [ "obj-30", 3 ],
					"disabled" : 0,
					"hidden" : 0,
					"source" : [ "obj-34", 1 ]
				}

			}
, 			{
				"patchline" : 				{
					"destination" : [ "obj-33", 1 ],
					"disabled" : 0,
					"hidden" : 0,
					"source" : [ "obj-34", 3 ]
				}

			}
, 			{
				"patchline" : 				{
					"destination" : [ "obj-36", 2 ],
					"disabled" : 0,
					"hidden" : 0,
					"source" : [ "obj-34", 0 ]
				}

			}
, 			{
				"patchline" : 				{
					"destination" : [ "obj-84", 0 ],
					"disabled" : 0,
					"hidden" : 0,
					"source" : [ "obj-34", 2 ]
				}

			}
, 			{
				"patchline" : 				{
					"destination" : [ "obj-17", 2 ],
					"disabled" : 0,
					"hidden" : 0,
					"source" : [ "obj-35", 0 ]
				}

			}
, 			{
				"patchline" : 				{
					"destination" : [ "obj-32", 1 ],
					"disabled" : 0,
					"hidden" : 0,
					"source" : [ "obj-35", 3 ]
				}

			}
, 			{
				"patchline" : 				{
					"destination" : [ "obj-33", 0 ],
					"disabled" : 0,
					"hidden" : 0,
					"source" : [ "obj-35", 2 ]
				}

			}
, 			{
				"patchline" : 				{
					"destination" : [ "obj-36", 3 ],
					"disabled" : 0,
					"hidden" : 0,
					"source" : [ "obj-35", 1 ]
				}

			}
, 			{
				"patchline" : 				{
					"destination" : [ "obj-19", 2 ],
					"disabled" : 0,
					"hidden" : 0,
					"source" : [ "obj-36", 0 ]
				}

			}
, 			{
				"patchline" : 				{
					"destination" : [ "obj-29", 3 ],
					"disabled" : 0,
					"hidden" : 0,
					"source" : [ "obj-36", 1 ]
				}

			}
, 			{
				"patchline" : 				{
					"destination" : [ "obj-34", 0 ],
					"disabled" : 0,
					"hidden" : 0,
					"source" : [ "obj-36", 2 ]
				}

			}
, 			{
				"patchline" : 				{
					"destination" : [ "obj-35", 1 ],
					"disabled" : 0,
					"hidden" : 0,
					"source" : [ "obj-36", 3 ]
				}

			}
, 			{
				"patchline" : 				{
					"destination" : [ "obj-19", 4 ],
					"disabled" : 0,
					"hidden" : 0,
					"source" : [ "obj-37", 4 ]
				}

			}
, 			{
				"patchline" : 				{
					"destination" : [ "obj-46", 0 ],
					"disabled" : 0,
					"hidden" : 0,
					"source" : [ "obj-37", 0 ]
				}

			}
, 			{
				"patchline" : 				{
					"destination" : [ "obj-2", 2 ],
					"disabled" : 0,
					"hidden" : 0,
					"source" : [ "obj-4", 0 ]
				}

			}
, 			{
				"patchline" : 				{
					"destination" : [ "obj-20", 1 ],
					"disabled" : 0,
					"hidden" : 0,
					"source" : [ "obj-4", 3 ]
				}

			}
, 			{
				"patchline" : 				{
					"destination" : [ "obj-21", 0 ],
					"disabled" : 0,
					"hidden" : 0,
					"source" : [ "obj-4", 2 ]
				}

			}
, 			{
				"patchline" : 				{
					"destination" : [ "obj-3", 3 ],
					"disabled" : 0,
					"hidden" : 0,
					"source" : [ "obj-4", 1 ]
				}

			}
, 			{
				"patchline" : 				{
					"destination" : [ "obj-19", 0 ],
					"disabled" : 0,
					"hidden" : 0,
					"source" : [ "obj-41", 0 ]
				}

			}
, 			{
				"patchline" : 				{
					"destination" : [ "obj-37", 0 ],
					"disabled" : 0,
					"hidden" : 0,
					"source" : [ "obj-41", 0 ]
				}

			}
, 			{
				"patchline" : 				{
					"destination" : [ "obj-43", 0 ],
					"disabled" : 0,
					"hidden" : 0,
					"source" : [ "obj-44", 0 ]
				}

			}
, 			{
				"patchline" : 				{
					"destination" : [ "obj-19", 0 ],
					"disabled" : 0,
					"hidden" : 0,
					"source" : [ "obj-45", 0 ]
				}

			}
, 			{
				"patchline" : 				{
					"destination" : [ "obj-37", 0 ],
					"disabled" : 0,
					"hidden" : 0,
					"source" : [ "obj-45", 0 ]
				}

			}
, 			{
				"patchline" : 				{
					"destination" : [ "obj-37", 0 ],
					"disabled" : 0,
					"hidden" : 0,
					"source" : [ "obj-46", 0 ]
				}

			}
, 			{
				"patchline" : 				{
					"destination" : [ "obj-45", 0 ],
					"disabled" : 0,
					"hidden" : 0,
					"source" : [ "obj-48", 0 ]
				}

			}
, 			{
				"patchline" : 				{
					"destination" : [ "obj-32", 3 ],
					"disabled" : 0,
					"hidden" : 0,
					"source" : [ "obj-49", 0 ]
				}

			}
, 			{
				"patchline" : 				{
					"destination" : [ "obj-37", 6 ],
					"disabled" : 0,
					"hidden" : 0,
					"source" : [ "obj-5", 0 ]
				}

			}
, 			{
				"patchline" : 				{
					"destination" : [ "obj-15", 3 ],
					"disabled" : 0,
					"hidden" : 0,
					"source" : [ "obj-50", 0 ]
				}

			}
, 			{
				"patchline" : 				{
					"destination" : [ "obj-18", 3 ],
					"disabled" : 0,
					"hidden" : 0,
					"source" : [ "obj-51", 0 ]
				}

			}
, 			{
				"patchline" : 				{
					"destination" : [ "obj-31", 3 ],
					"disabled" : 0,
					"hidden" : 0,
					"source" : [ "obj-52", 0 ]
				}

			}
, 			{
				"patchline" : 				{
					"destination" : [ "obj-20", 3 ],
					"disabled" : 0,
					"hidden" : 0,
					"source" : [ "obj-53", 0 ]
				}

			}
, 			{
				"patchline" : 				{
					"destination" : [ "obj-16", 3 ],
					"disabled" : 0,
					"hidden" : 0,
					"source" : [ "obj-54", 0 ]
				}

			}
, 			{
				"patchline" : 				{
					"destination" : [ "obj-41", 0 ],
					"disabled" : 0,
					"hidden" : 0,
					"source" : [ "obj-59", 0 ]
				}

			}
, 			{
				"patchline" : 				{
					"destination" : [ "obj-64", 0 ],
					"disabled" : 0,
					"hidden" : 0,
					"source" : [ "obj-62", 0 ]
				}

			}
, 			{
				"patchline" : 				{
					"destination" : [ "obj-12", 0 ],
					"disabled" : 0,
					"hidden" : 0,
					"source" : [ "obj-64", 0 ]
				}

			}
, 			{
				"patchline" : 				{
					"destination" : [ "obj-18", 0 ],
					"disabled" : 0,
					"hidden" : 0,
					"source" : [ "obj-65", 0 ]
				}

			}
, 			{
				"patchline" : 				{
					"destination" : [ "obj-2", 0 ],
					"disabled" : 0,
					"hidden" : 0,
					"source" : [ "obj-66", 0 ]
				}

			}
, 			{
				"patchline" : 				{
					"destination" : [ "obj-1", 0 ],
					"disabled" : 0,
					"hidden" : 0,
					"source" : [ "obj-67", 0 ]
				}

			}
, 			{
				"patchline" : 				{
					"destination" : [ "obj-24", 0 ],
					"disabled" : 0,
					"hidden" : 0,
					"source" : [ "obj-68", 0 ]
				}

			}
, 			{
				"patchline" : 				{
					"destination" : [ "obj-77", 0 ],
					"disabled" : 0,
					"hidden" : 0,
					"source" : [ "obj-69", 0 ]
				}

			}
, 			{
				"patchline" : 				{
					"destination" : [ "obj-14", 1 ],
					"disabled" : 0,
					"hidden" : 0,
					"source" : [ "obj-7", 3 ]
				}

			}
, 			{
				"patchline" : 				{
					"destination" : [ "obj-26", 0 ],
					"disabled" : 0,
					"hidden" : 0,
					"source" : [ "obj-7", 2 ]
				}

			}
, 			{
				"patchline" : 				{
					"destination" : [ "obj-44", 0 ],
					"disabled" : 0,
					"hidden" : 0,
					"source" : [ "obj-7", 6 ]
				}

			}
, 			{
				"patchline" : 				{
					"destination" : [ "obj-8", 2 ],
					"disabled" : 0,
					"hidden" : 0,
					"source" : [ "obj-7", 0 ]
				}

			}
, 			{
				"patchline" : 				{
					"destination" : [ "obj-9", 3 ],
					"disabled" : 0,
					"hidden" : 0,
					"source" : [ "obj-7", 1 ]
				}

			}
, 			{
				"patchline" : 				{
					"destination" : [ "obj-80", 0 ],
					"disabled" : 0,
					"hidden" : 0,
					"source" : [ "obj-70", 0 ]
				}

			}
, 			{
				"patchline" : 				{
					"destination" : [ "obj-80", 1 ],
					"disabled" : 0,
					"hidden" : 0,
					"source" : [ "obj-71", 0 ]
				}

			}
, 			{
				"patchline" : 				{
					"destination" : [ "obj-78", 1 ],
					"disabled" : 0,
					"hidden" : 0,
					"source" : [ "obj-72", 0 ]
				}

			}
, 			{
				"patchline" : 				{
					"destination" : [ "obj-11", 1 ],
					"disabled" : 0,
					"hidden" : 0,
					"source" : [ "obj-73", 0 ]
				}

			}
, 			{
				"patchline" : 				{
					"destination" : [ "obj-9", 1 ],
					"disabled" : 0,
					"hidden" : 0,
					"source" : [ "obj-74", 0 ]
				}

			}
, 			{
				"patchline" : 				{
					"destination" : [ "obj-28", 1 ],
					"disabled" : 0,
					"hidden" : 0,
					"source" : [ "obj-75", 0 ]
				}

			}
, 			{
				"patchline" : 				{
					"destination" : [ "obj-23", 1 ],
					"disabled" : 0,
					"hidden" : 0,
					"source" : [ "obj-76", 3 ]
				}

			}
, 			{
				"patchline" : 				{
					"destination" : [ "obj-77", 2 ],
					"disabled" : 0,
					"hidden" : 0,
					"source" : [ "obj-76", 0 ]
				}

			}
, 			{
				"patchline" : 				{
					"destination" : [ "obj-78", 3 ],
					"disabled" : 0,
					"hidden" : 0,
					"source" : [ "obj-76", 1 ]
				}

			}
, 			{
				"patchline" : 				{
					"destination" : [ "obj-8", 0 ],
					"disabled" : 0,
					"hidden" : 0,
					"source" : [ "obj-76", 2 ]
				}

			}
, 			{
				"patchline" : 				{
					"destination" : [ "obj-24", 1 ],
					"disabled" : 0,
					"hidden" : 0,
					"source" : [ "obj-77", 3 ]
				}

			}
, 			{
				"patchline" : 				{
					"destination" : [ "obj-69", 0 ],
					"disabled" : 0,
					"hidden" : 0,
					"source" : [ "obj-77", 0 ]
				}

			}
, 			{
				"patchline" : 				{
					"destination" : [ "obj-76", 0 ],
					"disabled" : 0,
					"hidden" : 0,
					"source" : [ "obj-77", 2 ]
				}

			}
, 			{
				"patchline" : 				{
					"destination" : [ "obj-80", 3 ],
					"disabled" : 0,
					"hidden" : 0,
					"source" : [ "obj-77", 1 ]
				}

			}
, 			{
				"patchline" : 				{
					"destination" : [ "obj-11", 0 ],
					"disabled" : 0,
					"hidden" : 0,
					"source" : [ "obj-78", 2 ]
				}

			}
, 			{
				"patchline" : 				{
					"destination" : [ "obj-72", 0 ],
					"disabled" : 0,
					"hidden" : 0,
					"source" : [ "obj-78", 1 ]
				}

			}
, 			{
				"patchline" : 				{
					"destination" : [ "obj-76", 1 ],
					"disabled" : 0,
					"hidden" : 0,
					"source" : [ "obj-78", 3 ]
				}

			}
, 			{
				"patchline" : 				{
					"destination" : [ "obj-80", 2 ],
					"disabled" : 0,
					"hidden" : 0,
					"source" : [ "obj-78", 0 ]
				}

			}
, 			{
				"patchline" : 				{
					"destination" : [ "obj-27", 1 ],
					"disabled" : 0,
					"hidden" : 0,
					"source" : [ "obj-79", 0 ]
				}

			}
, 			{
				"patchline" : 				{
					"destination" : [ "obj-11", 3 ],
					"disabled" : 0,
					"hidden" : 0,
					"source" : [ "obj-8", 1 ]
				}

			}
, 			{
				"patchline" : 				{
					"destination" : [ "obj-13", 1 ],
					"disabled" : 0,
					"hidden" : 0,
					"source" : [ "obj-8", 3 ]
				}

			}
, 			{
				"patchline" : 				{
					"destination" : [ "obj-44", 0 ],
					"disabled" : 0,
					"hidden" : 0,
					"source" : [ "obj-8", 6 ]
				}

			}
, 			{
				"patchline" : 				{
					"destination" : [ "obj-7", 0 ],
					"disabled" : 0,
					"hidden" : 0,
					"source" : [ "obj-8", 2 ]
				}

			}
, 			{
				"patchline" : 				{
					"destination" : [ "obj-76", 2 ],
					"disabled" : 0,
					"hidden" : 0,
					"source" : [ "obj-8", 0 ]
				}

			}
, 			{
				"patchline" : 				{
					"destination" : [ "obj-70", 0 ],
					"disabled" : 0,
					"hidden" : 0,
					"source" : [ "obj-80", 0 ]
				}

			}
, 			{
				"patchline" : 				{
					"destination" : [ "obj-71", 0 ],
					"disabled" : 0,
					"hidden" : 0,
					"source" : [ "obj-80", 1 ]
				}

			}
, 			{
				"patchline" : 				{
					"destination" : [ "obj-77", 1 ],
					"disabled" : 0,
					"hidden" : 0,
					"source" : [ "obj-80", 3 ]
				}

			}
, 			{
				"patchline" : 				{
					"destination" : [ "obj-78", 0 ],
					"disabled" : 0,
					"hidden" : 0,
					"source" : [ "obj-80", 2 ]
				}

			}
, 			{
				"patchline" : 				{
					"destination" : [ "obj-27", 2 ],
					"disabled" : 0,
					"hidden" : 0,
					"source" : [ "obj-81", 0 ]
				}

			}
, 			{
				"patchline" : 				{
					"destination" : [ "obj-25", 2 ],
					"disabled" : 0,
					"hidden" : 0,
					"source" : [ "obj-82", 0 ]
				}

			}
, 			{
				"patchline" : 				{
					"destination" : [ "obj-30", 2 ],
					"disabled" : 0,
					"hidden" : 0,
					"source" : [ "obj-83", 0 ]
				}

			}
, 			{
				"patchline" : 				{
					"destination" : [ "obj-34", 2 ],
					"disabled" : 0,
					"hidden" : 0,
					"source" : [ "obj-84", 0 ]
				}

			}
, 			{
				"patchline" : 				{
					"destination" : [ "obj-33", 2 ],
					"disabled" : 0,
					"hidden" : 0,
					"source" : [ "obj-85", 0 ]
				}

			}
, 			{
				"patchline" : 				{
					"destination" : [ "obj-31", 2 ],
					"disabled" : 0,
					"hidden" : 0,
					"source" : [ "obj-86", 0 ]
				}

			}
, 			{
				"patchline" : 				{
					"destination" : [ "obj-48", 0 ],
					"disabled" : 0,
					"hidden" : 0,
					"source" : [ "obj-87", 0 ]
				}

			}
, 			{
				"patchline" : 				{
					"destination" : [ "obj-59", 0 ],
					"disabled" : 0,
					"hidden" : 0,
					"source" : [ "obj-88", 0 ]
				}

			}
, 			{
				"patchline" : 				{
					"destination" : [ "obj-11", 2 ],
					"disabled" : 0,
					"hidden" : 0,
					"source" : [ "obj-9", 0 ]
				}

			}
, 			{
				"patchline" : 				{
					"destination" : [ "obj-28", 0 ],
					"disabled" : 0,
					"hidden" : 0,
					"source" : [ "obj-9", 2 ]
				}

			}
, 			{
				"patchline" : 				{
					"destination" : [ "obj-7", 1 ],
					"disabled" : 0,
					"hidden" : 0,
					"source" : [ "obj-9", 3 ]
				}

			}
, 			{
				"patchline" : 				{
					"destination" : [ "obj-74", 0 ],
					"disabled" : 0,
					"hidden" : 0,
					"source" : [ "obj-9", 1 ]
				}

			}
 ]
	}

}
